# xmcd CD database file
#
# Track frame offsets:
#	150
#	15258
#	27526
#	46737
#	59789
#	91488
#	109827
#	123174
#	145356
#	164545
#	179754
#	210769
#	238082
#	252135
#	269467
#
# Disc length: 3865 seconds
#
# Revision: 0
# Processed by: cddbd v1.5.2PL0 Copyright (c) Steve Scherf et al.
# Submitted via: CDex 1.51
#
DISCID=d40f170f
DTITLE=Kristin Marion and Philippe Martel - Not without you
DYEAR=2012
DGENRE=Jazz
TTITLE0=If you could see me now
TTITLE1=I hear music
TTITLE2=Willow weep for me
TTITLE3=Give me a break (Unit 7)
TTITLE4=At last
TTITLE5=Dr Feelgood
TTITLE6=A time for love
TTITLE7=Lucky's weeding
TTITLE8=Body and soul
TTITLE9=Come back to me
TTITLE10=Shannon
TTITLE11=My romance
TTITLE12=Tainted love
TTITLE13=Buck 45
TTITLE14=Ne me dites pas que c'est encore de l'amour (Don't tell me it's love again)
EXTD=YEAR: 2012
EXTT0=
EXTT1=
EXTT2=
EXTT3=
EXTT4=
EXTT5=
EXTT6=
EXTT7=
EXTT8=
EXTT9=
EXTT10=
EXTT11=
EXTT12=
EXTT13=
EXTT14=
PLAYORDER=
